<?xml version="1.0" encoding="UTF-8"?>
<svg id="a" xmlns="http://www.w3.org/2000/svg" version="1.1" viewBox="0 0 512 512">
  <defs>
    <style>
      .cls-1 {
        fill: #a52324;
      }

      .cls-1, .cls-2 {
        stroke-width: 0px;
      }

      .cls-2 {
        fill: #fff;
      }
    </style>
  </defs>
  <rect class="cls-2" width="512" height="512"/>
  <g id="i">
    <g>
      <path class="cls-1" d="M334.2,415.3h-156.4c-4.9,0-8.8-3.9-8.8-8.8v-156.4c0-4.9,3.9-8.8,8.8-8.8h156.4c4.9,0,8.8,3.9,8.8,8.8v156.4c0,4.9-3.9,8.8-8.8,8.8ZM186.6,397.6h138.7v-138.7h-138.7v138.7Z"/>
      <path class="cls-1" d="M256,181.9c-2.3,0-4.5-.9-6.2-2.6l-67.5-67.5c-3.4-3.4-3.4-9,0-12.5s9-3.4,12.5,0l61.3,61.3,61.3-61.3c3.4-3.4,9-3.4,12.5,0s3.4,9,0,12.5l-67.5,67.5c-1.7,1.7-4,2.6-6.2,2.6Z"/>
    </g>
  </g>
</svg>