<?xml version="1.0" encoding="UTF-8"?>
<svg xmlns="http://www.w3.org/2000/svg" width="2.5in" height="3.5in" viewBox="0 0 180 252">
  <g id="a" data-name="레이어 35">
    <rect x="-200" y="-864" width="1818" height="1116" fill="#fff" stroke-width="0"/>
  </g>
  <g id="ag" data-name="레이어 32">
    <g>
      <circle cx="90" cy="126" r="8.025" fill="none" stroke="#11397d" stroke-linecap="round" stroke-linejoin="round" stroke-width="2.5"/>
      <rect x="76.918" y="112.918" width="26.163" height="26.163" fill="none" stroke="#11397d" stroke-linecap="round" stroke-linejoin="round" stroke-width="2.5"/>
      <rect x="71.29" y="107.29" width="37.42" height="37.42" transform="translate(-62.735 100.544) rotate(-45)" fill="none" stroke="#11397d" stroke-linecap="round" stroke-linejoin="round" stroke-width="2.5"/>
    </g>
    <path d="M18.723,76.013l23.967-23.105c2.607-2.607,4.624-4.751,6.049-6.431,1.426-1.68,2.514-3.332,3.266-4.956.751-1.624,1.139-3.354,1.16-5.188-.021-2.077-.535-3.9-1.541-5.47s-2.393-2.773-4.16-3.613c-1.769-.84-3.769-1.26-6-1.26-2.299,0-4.31.459-6.033,1.376-1.725.917-3.056,2.227-3.994,3.928-.939,1.702-1.409,3.691-1.409,5.967h-11.603c-.021-4.221.955-7.939,2.934-11.154,1.978-3.216,4.725-5.696,8.238-7.442,3.514-1.745,7.524-2.619,12.033-2.619s8.557.841,12.082,2.52c3.525,1.68,6.26,4.017,8.205,7.012,1.943,2.994,2.917,6.37,2.917,10.127,0,2.651-.503,5.188-1.509,7.607s-2.729,5.11-5.171,8.072c-2.442,2.961-5.906,6.563-10.393,10.807l-12.032,11.967v.497h30.132v10.21H18.756l-.033-8.851Z" fill="#11397d" stroke-width="0"/>
    <path d="M161.279,175.987l-23.967,23.104c-2.607,2.607-4.625,4.752-6.051,6.432-1.425,1.68-2.514,3.332-3.265,4.956s-1.138,3.353-1.16,5.188c.022,2.077.536,3.9,1.541,5.47,1.006,1.568,2.393,2.773,4.161,3.613,1.768.84,3.768,1.26,6,1.26,2.298,0,4.309-.459,6.032-1.376s3.056-2.227,3.995-3.929c.939-1.701,1.408-3.69,1.408-5.967h11.603c.022,4.222-.956,7.939-2.934,11.155s-4.724,5.696-8.237,7.442c-3.514,1.745-7.525,2.619-12.033,2.619s-8.559-.841-12.084-2.52c-3.523-1.68-6.259-4.018-8.203-7.012-1.945-2.994-2.918-6.37-2.918-10.127,0-2.652.503-5.188,1.508-7.607,1.006-2.42,2.73-5.111,5.172-8.072,2.442-2.961,5.906-6.563,10.393-10.807l12.033-11.967v-.497h-30.133v-10.21h47.105l.033,8.851Z" fill="#11397d" stroke-width="0"/>
  </g>
</svg>