<?xml version="1.0" encoding="UTF-8"?>
<svg xmlns="http://www.w3.org/2000/svg" width="2.5in" height="3.5in" viewBox="0 0 180 252">
  <g id="a" data-name="레이어 35">
    <rect x="-400" y="-864" width="1818" height="1116" fill="#fff" stroke-width="0"/>
  </g>
  <g id="ag" data-name="레이어 32">
    <g>
      <line x1="65.829" y1="144.315" x2="114.171" y2="144.315" fill="none" stroke="#11397d" stroke-linecap="round" stroke-linejoin="round" stroke-width="2.5"/>
      <line x1="65.829" y1="139.843" x2="114.171" y2="139.843" fill="none" stroke="#11397d" stroke-linecap="round" stroke-linejoin="round" stroke-width="2.5"/>
      <line x1="65.829" y1="135.371" x2="114.171" y2="135.371" fill="none" stroke="#11397d" stroke-linecap="round" stroke-linejoin="round" stroke-width="2.5"/>
      <line x1="65.829" y1="130.899" x2="114.171" y2="130.899" fill="none" stroke="#11397d" stroke-linecap="round" stroke-linejoin="round" stroke-width="2.5"/>
      <line x1="65.829" y1="126.427" x2="114.171" y2="126.427" fill="none" stroke="#11397d" stroke-linecap="round" stroke-linejoin="round" stroke-width="2.5"/>
      <line x1="65.829" y1="121.955" x2="114.171" y2="121.955" fill="none" stroke="#11397d" stroke-linecap="round" stroke-linejoin="round" stroke-width="2.5"/>
      <line x1="65.829" y1="117.483" x2="114.171" y2="117.483" fill="none" stroke="#11397d" stroke-linecap="round" stroke-linejoin="round" stroke-width="2.5"/>
      <line x1="65.829" y1="113.011" x2="114.171" y2="113.011" fill="none" stroke="#11397d" stroke-linecap="round" stroke-linejoin="round" stroke-width="2.5"/>
      <line x1="65.829" y1="108.539" x2="114.171" y2="108.539" fill="none" stroke="#11397d" stroke-linecap="round" stroke-linejoin="round" stroke-width="2.5"/>
      <line x1="65.829" y1="104.067" x2="114.171" y2="104.067" fill="none" stroke="#11397d" stroke-linecap="round" stroke-linejoin="round" stroke-width="2.5"/>
    </g>
    <path d="M30.523,83.354c-3.779-1.624-6.746-3.905-8.9-6.845s-3.287-6.299-3.398-10.078h12.332c.11,1.812.734,3.404,1.873,4.774,1.138,1.37,2.656,2.431,4.558,3.182,1.9.752,4.022,1.127,6.364,1.127,2.475,0,4.691-.431,6.646-1.293,1.956-.861,3.48-2.055,4.575-3.58,1.094-1.524,1.641-3.27,1.641-5.237,0-2.055-.558-3.878-1.674-5.47-1.116-1.591-2.741-2.828-4.873-3.713-2.133-.883-4.646-1.325-7.542-1.325h-6.033v-9.415h6.033c2.387,0,4.514-.419,6.382-1.26,1.867-.839,3.315-2.005,4.343-3.497,1.027-1.491,1.541-3.221,1.541-5.188,0-1.878-.447-3.541-1.342-4.989-.896-1.447-2.166-2.568-3.812-3.364s-3.553-1.193-5.719-1.193-4.154.381-5.967,1.144-3.276,1.846-4.393,3.249c-1.115,1.403-1.719,3.021-1.807,4.855h-11.701c.088-3.712,1.193-7.032,3.314-9.961,2.122-2.928,4.984-5.198,8.586-6.812,3.602-1.612,7.613-2.42,12.033-2.42,4.464,0,8.414.841,11.852,2.52,3.436,1.68,6.088,3.951,7.955,6.812,1.867,2.862,2.79,6.017,2.768,9.464.022,2.52-.475,4.796-1.491,6.829s-2.47,3.724-4.358,5.071c-1.891,1.349-4.084,2.276-6.58,2.785v.53c3.159.442,5.877,1.37,8.154,2.784,2.275,1.415,3.988,3.255,5.138,5.52,1.149,2.266,1.712,4.823,1.69,7.674.021,3.758-1.055,7.139-3.232,10.144-2.176,3.006-5.199,5.359-9.065,7.061-3.868,1.702-8.21,2.553-13.028,2.553s-9.082-.812-12.861-2.437Z" fill="#11397d" stroke-width="0"/>
    <path d="M149.478,168.645c3.779,1.625,6.746,3.906,8.9,6.846,2.155,2.939,3.288,6.299,3.397,10.078h-12.331c-.11-1.812-.734-3.404-1.873-4.774-1.138-1.37-2.657-2.431-4.558-3.183-1.9-.751-4.021-1.127-6.365-1.127-2.475,0-4.689.432-6.646,1.293-1.955.862-3.48,2.056-4.574,3.58-1.094,1.525-1.641,3.271-1.641,5.238,0,2.055.559,3.878,1.674,5.469,1.116,1.592,2.74,2.829,4.873,3.713s4.646,1.326,7.541,1.326h6.033v9.414h-6.033c-2.387,0-4.514.42-6.381,1.26s-3.314,2.006-4.342,3.498c-1.028,1.491-1.542,3.221-1.542,5.188,0,1.878.447,3.541,1.343,4.988.895,1.447,2.166,2.569,3.812,3.365,1.647.795,3.553,1.193,5.718,1.193s4.156-.381,5.968-1.144,3.276-1.846,4.392-3.249c1.117-1.403,1.719-3.021,1.807-4.855h11.702c-.088,3.712-1.193,7.032-3.315,9.961-2.121,2.928-4.982,5.198-8.585,6.812-3.603,1.612-7.613,2.42-12.033,2.42-4.464,0-8.415-.841-11.851-2.52-3.437-1.68-6.088-3.951-7.956-6.812-1.867-2.862-2.79-6.017-2.769-9.465-.021-2.519.477-4.795,1.492-6.828,1.017-2.033,2.47-3.725,4.359-5.072,1.889-1.348,4.082-2.275,6.58-2.784v-.53c-3.16-.442-5.879-1.371-8.154-2.785-2.276-1.414-3.989-3.254-5.139-5.519-1.148-2.266-1.713-4.823-1.691-7.675-.021-3.757,1.057-7.138,3.232-10.143,2.178-3.006,5.199-5.359,9.066-7.061,3.867-1.702,8.211-2.553,13.027-2.553s9.084.812,12.862,2.436Z" fill="#11397d" stroke-width="0"/>
  </g>
</svg>