<?xml version="1.0" encoding="UTF-8"?>
<svg xmlns="http://www.w3.org/2000/svg" width="2.5in" height="3.5in" viewBox="0 0 180 252">
  <g id="a" data-name="레이어 35">
    <rect x="-800" y="-576" width="1818" height="1116" fill="#fff" stroke-width="0"/>
  </g>
  <g id="y" data-name="레이어 24">
    <g>
      <circle cx="90.347" cy="111.494" r="8.025" fill="none" stroke="#1e6a36" stroke-linecap="round" stroke-linejoin="round" stroke-width="2.5"/>
      <path d="M103.717,111.494c0,7.384-5.986,13.37-13.37,13.37s-13.37-5.986-13.37-13.37" fill="none" stroke="#1e6a36" stroke-linecap="round" stroke-linejoin="round" stroke-width="2.5"/>
      <polyline points="104.411 145.52 79.195 145.52 90.347 111.494" fill="none" stroke="#1e6a36" stroke-linecap="round" stroke-linejoin="round" stroke-width="2.5"/>
    </g>
  </g>
  <g id="ag" data-name="레이어 32">
    <path d="M30.723,83.305c-3.58-1.657-6.42-3.955-8.52-6.895s-3.205-6.266-3.314-9.979h11.867c.154,1.835.779,3.465,1.873,4.89,1.094,1.426,2.529,2.548,4.309,3.365s3.729,1.227,5.852,1.227c2.496,0,4.74-.559,6.729-1.675,1.989-1.115,3.541-2.662,4.658-4.641,1.115-1.978,1.674-4.215,1.674-6.713,0-2.541-.569-4.823-1.707-6.845-1.139-2.022-2.735-3.597-4.791-4.724-2.055-1.127-4.364-1.702-6.928-1.724-2.674-.022-4.961.447-6.861,1.408-1.901.962-3.371,2.426-4.409,4.393h-11.271l4.044-38.42h40.11v10.21h-30.033l-2.055,18.033h.596c.885-.995,2.006-1.884,3.365-2.669,1.359-.784,2.879-1.392,4.559-1.823,1.679-.431,3.436-.646,5.27-.646,4.155,0,7.9.962,11.238,2.885,3.336,1.922,5.955,4.597,7.856,8.021,1.899,3.426,2.851,7.282,2.851,11.569,0,4.464-1.056,8.459-3.166,11.983-2.11,3.525-5.05,6.281-8.817,8.271-3.769,1.989-8.071,2.983-12.911,2.983-4.465,0-8.486-.828-12.066-2.486Z" fill="#1e6a36" stroke-width="0"/>
    <path d="M149.279,168.695c3.58,1.656,6.42,3.955,8.519,6.895,2.101,2.939,3.204,6.266,3.315,9.979h-11.867c-.154-1.836-.779-3.465-1.873-4.891-1.094-1.425-2.531-2.547-4.31-3.364s-3.729-1.227-5.851-1.227c-2.498,0-4.74.558-6.73,1.675-1.988,1.115-3.541,2.662-4.656,4.641-1.116,1.977-1.674,4.215-1.674,6.713,0,2.541.568,4.822,1.707,6.845,1.138,2.022,2.734,3.597,4.789,4.724,2.056,1.127,4.365,1.701,6.929,1.724,2.675.022,4.962-.447,6.862-1.409,1.9-.961,3.369-2.425,4.408-4.392h11.271l-4.045,38.42h-40.11v-10.21h30.033l2.056-18.033h-.598c-.883.994-2.005,1.884-3.364,2.668-1.358.785-2.878,1.393-4.558,1.824-1.68.43-3.437.646-5.271.646-4.154,0-7.9-.962-11.237-2.885-3.337-1.922-5.955-4.597-7.856-8.021-1.9-3.426-2.851-7.282-2.851-11.569,0-4.464,1.056-8.459,3.165-11.983,2.111-3.525,5.051-6.281,8.818-8.271,3.768-1.988,8.072-2.982,12.912-2.982,4.464,0,8.486.828,12.066,2.486Z" fill="#1e6a36" stroke-width="0"/>
  </g>
</svg>