<?xml version="1.0" encoding="UTF-8"?>
<svg xmlns="http://www.w3.org/2000/svg" width="2.5in" height="3.5in" viewBox="0 0 180 252">
  <g id="a" data-name="레이어 35">
    <rect x="-1000" y="-288" width="1818" height="1116" fill="#fff" stroke-width="0"/>
  </g>
  <g id="q" data-name="레이어 16">
    <g>
      <rect x="89.766" y="109.507" width="25.208" height="36.257" fill="none" stroke="#ebc129" stroke-linecap="round" stroke-linejoin="round" stroke-width="2.5"/>
      <rect x="64.535" y="109.485" width="25.208" height="36.257" fill="none" stroke="#ebc129" stroke-linecap="round" stroke-linejoin="round" stroke-width="2.5"/>
      <line x1="69.002" y1="125.444" x2="85.277" y2="125.444" fill="none" stroke="#ebc129" stroke-linecap="round" stroke-linejoin="round" stroke-width="2.5"/>
      <line x1="73.817" y1="129.782" x2="80.461" y2="129.782" fill="none" stroke="#ebc129" stroke-linecap="round" stroke-linejoin="round" stroke-width="2.5"/>
      <line x1="96.209" y1="118.96" x2="110.507" y2="118.96" fill="none" stroke="#ebc129" stroke-linecap="round" stroke-linejoin="round" stroke-width="2.5"/>
      <line x1="94.232" y1="123.298" x2="110.507" y2="123.298" fill="none" stroke="#ebc129" stroke-linecap="round" stroke-linejoin="round" stroke-width="2.5"/>
      <line x1="94.232" y1="127.636" x2="110.507" y2="127.636" fill="none" stroke="#ebc129" stroke-linecap="round" stroke-linejoin="round" stroke-width="2.5"/>
      <line x1="94.232" y1="131.973" x2="110.507" y2="131.973" fill="none" stroke="#ebc129" stroke-linecap="round" stroke-linejoin="round" stroke-width="2.5"/>
      <line x1="94.232" y1="136.311" x2="96.209" y2="136.311" fill="none" stroke="#ebc129" stroke-linecap="round" stroke-linejoin="round" stroke-width="2.5"/>
    </g>
  </g>
  <g id="ag" data-name="레이어 32">
    <path d="M30.971,82.543c-3.967-2.144-7.182-5.657-9.646-10.542-2.465-4.884-3.686-11.271-3.662-19.16,0-7.668,1.104-14.271,3.314-19.807,2.209-5.536,5.358-9.751,9.447-12.646,4.088-2.895,8.906-4.343,14.453-4.343,4.265,0,8.094.824,11.486,2.47,3.393,1.646,6.133,3.929,8.221,6.846s3.387,6.21,3.895,9.878h-12.065c-.421-1.724-1.149-3.242-2.188-4.558-1.039-1.314-2.354-2.32-3.944-3.017s-3.393-1.044-5.403-1.044c-3.248,0-6.017.917-8.304,2.751-2.288,1.835-4.034,4.481-5.237,7.939-1.205,3.459-1.818,7.574-1.84,12.348h.695c1.127-1.944,2.58-3.624,4.359-5.038s3.779-2.491,6-3.232c2.221-.74,4.569-1.11,7.045-1.11,4.021,0,7.679.944,10.972,2.834s5.884,4.525,7.773,7.906c1.89,3.382,2.823,7.172,2.802,11.37.021,4.465-1.012,8.481-3.1,12.05-2.089,3.569-5.033,6.359-8.834,8.37-3.802,2.012-8.155,3.005-13.062,2.983-4.817-.022-9.21-1.104-13.177-3.248ZM50.844,74.156c2.011-1.172,3.591-2.769,4.74-4.79,1.148-2.022,1.725-4.249,1.725-6.68,0-2.409-.564-4.613-1.691-6.613s-2.68-3.574-4.657-4.724-4.205-1.725-6.68-1.725-4.735.592-6.778,1.774c-2.045,1.182-3.658,2.784-4.84,4.807-1.184,2.021-1.785,4.204-1.807,6.547,0,2.343.58,4.524,1.74,6.547,1.16,2.021,2.745,3.63,4.756,4.823,2.012,1.193,4.266,1.79,6.764,1.79,2.475,0,4.717-.586,6.729-1.757Z" fill="#ebc129" stroke-width="0"/>
    <path d="M149.03,169.457c3.967,2.144,7.183,5.657,9.646,10.541,2.465,4.885,3.686,11.271,3.664,19.16,0,7.669-1.105,14.271-3.315,19.807-2.21,5.537-5.358,9.752-9.447,12.646-4.089,2.896-8.905,4.344-14.453,4.344-4.265,0-8.094-.824-11.486-2.471-3.392-1.646-6.132-3.928-8.221-6.845s-3.387-6.21-3.896-9.878h12.066c.42,1.723,1.149,3.242,2.188,4.557,1.039,1.315,2.354,2.321,3.945,3.018,1.592.695,3.393,1.044,5.403,1.044,3.249,0,6.017-.917,8.304-2.751,2.287-1.835,4.033-4.481,5.238-7.939,1.204-3.459,1.817-7.574,1.84-12.348h-.697c-1.127,1.943-2.58,3.623-4.358,5.038-1.778,1.414-3.779,2.491-6,3.231-2.222.74-4.569,1.111-7.044,1.111-4.022,0-7.68-.945-10.973-2.834-3.293-1.891-5.885-4.525-7.773-7.906-1.89-3.382-2.823-7.172-2.801-11.371-.022-4.464,1.01-8.48,3.1-12.049,2.088-3.57,5.033-6.359,8.834-8.371,3.801-2.011,8.154-3.004,13.061-2.982,4.818.021,9.21,1.104,13.177,3.248ZM129.157,177.844c-2.011,1.172-3.591,2.768-4.74,4.79s-1.724,4.249-1.724,6.68c0,2.409.563,4.612,1.69,6.613,1.127,2,2.68,3.574,4.657,4.724,1.979,1.148,4.205,1.725,6.68,1.725s4.735-.592,6.779-1.774,3.658-2.784,4.84-4.807,1.785-4.204,1.807-6.547c0-2.343-.58-4.524-1.74-6.547s-2.746-3.63-4.758-4.823c-2.01-1.193-4.265-1.79-6.762-1.79-2.475,0-4.719.585-6.729,1.757Z" fill="#ebc129" stroke-width="0"/>
  </g>
</svg>