<?xml version="1.0" encoding="UTF-8"?>
<svg xmlns="http://www.w3.org/2000/svg" width="2.5in" height="3.5in" viewBox="0 0 180 252">
  <g id="a" data-name="레이어 35">
    <rect x="-1200" y="-864" width="1818" height="1116" fill="#fff" stroke-width="0"/>
  </g>
  <g id="ag" data-name="레이어 32">
    <g>
      <g>
        <line x1="89.773" y1="108.845" x2="89.773" y2="149.467" fill="none" stroke="#11397d" stroke-linecap="round" stroke-linejoin="round" stroke-width="2.5"/>
        <line x1="89.773" y1="117.23" x2="95.463" y2="110.821" fill="none" stroke="#11397d" stroke-linecap="round" stroke-linejoin="round" stroke-width="2.5"/>
        <line x1="89.773" y1="117.23" x2="84.083" y2="110.821" fill="none" stroke="#11397d" stroke-linecap="round" stroke-linejoin="round" stroke-width="2.5"/>
        <line x1="89.773" y1="141.083" x2="84.083" y2="147.492" fill="none" stroke="#11397d" stroke-linecap="round" stroke-linejoin="round" stroke-width="2.5"/>
        <line x1="89.773" y1="141.083" x2="95.463" y2="147.492" fill="none" stroke="#11397d" stroke-linecap="round" stroke-linejoin="round" stroke-width="2.5"/>
      </g>
      <g>
        <line x1="72.183" y1="119.001" x2="107.363" y2="139.312" fill="none" stroke="#11397d" stroke-linecap="round" stroke-linejoin="round" stroke-width="2.5"/>
        <line x1="79.444" y1="123.193" x2="76.739" y2="115.061" fill="none" stroke="#11397d" stroke-linecap="round" stroke-linejoin="round" stroke-width="2.5"/>
        <line x1="79.445" y1="123.193" x2="71.049" y2="124.916" fill="none" stroke="#11397d" stroke-linecap="round" stroke-linejoin="round" stroke-width="2.5"/>
        <line x1="100.102" y1="135.119" x2="102.807" y2="143.251" fill="none" stroke="#11397d" stroke-linecap="round" stroke-linejoin="round" stroke-width="2.5"/>
        <line x1="100.102" y1="135.12" x2="108.497" y2="133.396" fill="none" stroke="#11397d" stroke-linecap="round" stroke-linejoin="round" stroke-width="2.5"/>
      </g>
      <g>
        <line x1="72.183" y1="139.312" x2="107.363" y2="119.001" fill="none" stroke="#11397d" stroke-linecap="round" stroke-linejoin="round" stroke-width="2.5"/>
        <line x1="79.445" y1="135.12" x2="71.049" y2="133.396" fill="none" stroke="#11397d" stroke-linecap="round" stroke-linejoin="round" stroke-width="2.5"/>
        <line x1="79.444" y1="135.119" x2="76.739" y2="143.251" fill="none" stroke="#11397d" stroke-linecap="round" stroke-linejoin="round" stroke-width="2.5"/>
        <line x1="100.102" y1="123.193" x2="108.497" y2="124.916" fill="none" stroke="#11397d" stroke-linecap="round" stroke-linejoin="round" stroke-width="2.5"/>
        <line x1="100.102" y1="123.193" x2="102.807" y2="115.061" fill="none" stroke="#11397d" stroke-linecap="round" stroke-linejoin="round" stroke-width="2.5"/>
      </g>
    </g>
    <path d="M50.678,27.681v-.497H16.535v-10.21h46.806v10.475l-29.437,57.415h-12.695l29.469-57.183Z" fill="#11397d" stroke-width="0"/>
    <path d="M129.322,224.318v.498h34.145v10.21h-46.807v-10.476l29.436-57.414h12.697l-29.471,57.182Z" fill="#11397d" stroke-width="0"/>
  </g>
</svg>