<?xml version="1.0" encoding="UTF-8"?>
<svg xmlns="http://www.w3.org/2000/svg" width="2.5in" height="3.5in" viewBox="0 0 180 252">
  <g id="a" data-name="레이어 35">
    <rect x="-1400" y="-576" width="1818" height="1116" fill="#fff" stroke-width="0"/>
  </g>
  <g id="y" data-name="레이어 24">
    <g>
      <line x1="65.553" y1="129.747" x2="114.447" y2="129.747" fill="none" stroke="#1e6a36" stroke-linecap="round" stroke-linejoin="round" stroke-width="2.5"/>
      <path d="M74.333,129.747c5.372,0,9.727,4.355,9.727,9.727s4.355,9.727,9.727,9.727" fill="none" stroke="#1e6a36" stroke-linecap="round" stroke-linejoin="round" stroke-width="2.5"/>
      <path d="M93.335,129.747c3.725,0,6.745-3.02,6.745-6.745s3.02-6.745,6.745-6.745" fill="none" stroke="#1e6a36" stroke-linecap="round" stroke-linejoin="round" stroke-width="2.5"/>
      <line x1="100.081" y1="123.002" x2="100.081" y2="102.952" fill="none" stroke="#1e6a36" stroke-linecap="round" stroke-linejoin="round" stroke-width="2.5"/>
      <path d="M86.59,101.535c0,3.725,3.02,6.745,6.745,6.745s6.745,3.02,6.745,6.745" fill="none" stroke="#1e6a36" stroke-linecap="round" stroke-linejoin="round" stroke-width="2.5"/>
    </g>
  </g>
  <g id="ag" data-name="레이어 32">
    <path d="M30.059,83.321c-3.911-1.646-6.973-3.922-9.182-6.828-2.21-2.906-3.305-6.183-3.281-9.829-.023-2.807.613-5.425,1.906-7.856,1.292-2.431,3.043-4.441,5.254-6.033,2.209-1.591,4.662-2.597,7.359-3.017v-.431c-2.321-.486-4.393-1.453-6.217-2.9-1.822-1.447-3.237-3.232-4.242-5.354-1.006-2.122-1.509-4.397-1.509-6.829,0-3.469,1-6.585,3-9.348s4.769-4.928,8.304-6.497c3.536-1.569,7.503-2.354,11.9-2.354s8.365.785,11.9,2.354c3.536,1.569,6.299,3.734,8.288,6.497s2.994,5.879,3.017,9.348c-.022,2.432-.542,4.707-1.559,6.829-1.016,2.121-2.431,3.906-4.242,5.354-1.812,1.447-3.879,2.414-6.199,2.9v.431c2.674.42,5.127,1.426,7.359,3.017,2.231,1.592,3.994,3.603,5.287,6.033,1.293,2.432,1.939,5.05,1.939,7.856,0,3.646-1.1,6.923-3.299,9.829s-5.266,5.183-9.199,6.828c-3.934,1.646-8.365,2.47-13.293,2.47s-9.381-.823-13.293-2.47ZM50.297,74.818c2-.905,3.541-2.148,4.625-3.729,1.082-1.58,1.623-3.409,1.623-5.486,0-2.144-.562-4.061-1.689-5.752-1.127-1.69-2.697-3.017-4.708-3.978s-4.276-1.442-6.796-1.442-4.784.481-6.795,1.442c-2.012.961-3.586,2.293-4.724,3.994-1.139,1.702-1.686,3.613-1.642,5.735-.044,2.055.476,3.873,1.559,5.453,1.082,1.58,2.629,2.829,4.641,3.746,2.011.917,4.332,1.375,6.961,1.375s4.945-.452,6.945-1.359ZM49.17,44.106c1.713-.851,3.05-2.027,4.011-3.53.962-1.503,1.442-3.227,1.442-5.172,0-1.923-.476-3.624-1.426-5.104s-2.276-2.636-3.978-3.465c-1.702-.828-3.658-1.242-5.868-1.242s-4.171.414-5.883,1.242c-1.713.829-3.039,1.984-3.979,3.465s-1.408,3.182-1.408,5.104c0,1.945.48,3.669,1.441,5.172s2.299,2.68,4.012,3.53c1.711.851,3.65,1.276,5.816,1.276s4.105-.426,5.818-1.276Z" fill="#1e6a36" stroke-width="0"/>
    <path d="M149.941,168.678c3.912,1.646,6.973,3.923,9.183,6.829,2.21,2.905,3.304,6.183,3.282,9.829.021,2.807-.613,5.425-1.906,7.855-1.293,2.432-3.045,4.442-5.254,6.033-2.21,1.592-4.663,2.598-7.359,3.018v.431c2.32.485,4.393,1.452,6.215,2.9,1.824,1.447,3.238,3.231,4.244,5.354s1.508,4.397,1.508,6.829c0,3.469-1,6.585-3,9.348-2,2.762-4.768,4.928-8.305,6.497-3.535,1.569-7.502,2.354-11.9,2.354s-8.364-.785-11.9-2.354c-3.535-1.569-6.298-3.735-8.287-6.497-1.988-2.763-2.994-5.879-3.017-9.348.022-2.432.542-4.707,1.558-6.829,1.018-2.122,2.432-3.906,4.244-5.354,1.812-1.448,3.878-2.415,6.198-2.9v-.431c-2.673-.42-5.126-1.426-7.358-3.018-2.232-1.591-3.995-3.602-5.288-6.033-1.292-2.431-1.938-5.049-1.938-7.855,0-3.646,1.1-6.924,3.298-9.829,2.199-2.906,5.266-5.183,9.198-6.829,3.935-1.646,8.365-2.469,13.293-2.469s9.382.823,13.293,2.469ZM129.704,177.182c-2,.905-3.541,2.148-4.624,3.729s-1.625,3.408-1.625,5.486c0,2.143.564,4.061,1.691,5.752,1.127,1.689,2.696,3.016,4.707,3.977,2.012.962,4.275,1.443,6.795,1.443s4.785-.481,6.796-1.443c2.011-.961,3.586-2.293,4.724-3.994,1.139-1.701,1.686-3.613,1.641-5.734.045-2.055-.475-3.873-1.558-5.453s-2.63-2.829-4.641-3.746-4.331-1.375-6.962-1.375-4.943.452-6.944,1.359ZM130.831,207.894c-1.712.851-3.05,2.027-4.011,3.53s-1.442,3.227-1.442,5.172c0,1.922.476,3.623,1.426,5.104.95,1.48,2.276,2.636,3.978,3.464,1.702.829,3.658,1.243,5.867,1.243s4.172-.414,5.885-1.243c1.713-.828,3.039-1.983,3.978-3.464.939-1.481,1.409-3.183,1.409-5.104,0-1.945-.48-3.669-1.442-5.172s-2.298-2.68-4.011-3.53-3.652-1.276-5.818-1.276-4.104.426-5.817,1.276Z" fill="#1e6a36" stroke-width="0"/>
  </g>
</svg>